<?xml version="1.0" standalone="no"?>
<!DOCTYPE svg PUBLIC "-//W3C//DTD SVG 20010904//EN"
 "http://www.w3.org/TR/2001/REC-SVG-20010904/DTD/svg10.dtd">
<svg version="1.0" xmlns="http://www.w3.org/2000/svg"
 width="695.000000pt" height="695.000000pt" viewBox="0 0 695.000000 695.000000"
 preserveAspectRatio="xMidYMid meet">

<g transform="translate(0.000000,695.000000) scale(0.100000,-0.100000)"
fill="#000000" stroke="none">
<path d="M3215 6940 c-1015 -85 -1903 -570 -2517 -1375 -363 -477 -596 -1057
-674 -1680 -22 -175 -25 -607 -6 -770 55 -456 166 -830 363 -1215 488 -957
1386 -1631 2444 -1834 352 -67 770 -76 1144 -25 776 107 1545 516 2074 1105
329 367 579 796 725 1245 119 365 172 704 172 1098 0 934 -377 1822 -1051
2476 -556 539 -1254 871 -2019 960 -166 19 -507 27 -655 15z m470 -415 c157
-51 284 -110 425 -195 112 -68 247 -162 267 -188 10 -12 13 -471 13 -2133 0
-1888 -1 -2117 -15 -2123 -8 -3 -212 -4 -453 -3 l-437 2 -3 2348 -2 2348 37
-7 c21 -3 97 -25 168 -49z m-857 -1915 c2 -443 0 -829 -3 -857 l-6 -53 -745 0
c-409 0 -744 3 -744 8 0 4 11 41 24 82 113 358 306 735 503 980 238 297 539
517 853 624 129 44 115 143 118 -784z m2321 613 c428 -752 669 -1847 675
-3068 l1 -270 -392 -3 -393 -3 0 1763 0 1762 28 -45 c15 -24 52 -85 81 -136z
m-2319 -2790 c0 -291 -4 -534 -8 -540 -6 -10 -193 -12 -857 -10 l-850 2 -2 50
c-2 78 17 529 27 640 6 55 17 164 27 243 l16 142 824 0 823 0 0 -527z m1770
-768 l0 -74 35 21 c72 42 163 0 186 -85 18 -68 -6 -132 -64 -167 -41 -25 -83
-25 -124 0 -27 16 -33 17 -33 5 0 -10 -10 -15 -30 -15 l-30 0 0 195 0 195 30
0 30 0 0 -75z m500 -120 l0 -195 -30 0 -30 0 0 195 0 195 30 0 30 0 0 -195z
m-151 168 c12 -23 -4 -53 -29 -53 -25 0 -41 29 -29 52 12 23 45 23 58 1z m280
-2 c13 -24 -8 -55 -35 -49 -20 3 -30 29 -20 54 8 20 43 17 55 -5z m-3885 0 c6
-9 112 -307 123 -343 4 -15 -1 -18 -26 -18 -27 0 -34 5 -47 35 l-14 35 -89 0
-88 0 -9 -32 c-8 -27 -15 -34 -42 -36 -18 -2 -32 0 -32 5 0 4 28 88 62 186
l62 177 47 0 c26 0 50 -4 53 -9z m1766 -176 l0 -185 -30 0 -30 0 0 185 0 185
30 0 30 0 0 -185z m-1389 72 l34 -23 34 23 c39 27 77 29 109 7 40 -28 52 -66
52 -169 l0 -95 -30 0 -30 0 0 95 c0 82 -3 98 -20 115 -11 11 -29 20 -40 20
-11 0 -29 -9 -40 -20 -17 -17 -20 -33 -20 -115 l0 -95 -30 0 -30 0 0 95 c0 82
-3 98 -20 115 -24 24 -48 25 -78 4 -20 -14 -22 -23 -22 -115 l0 -99 -30 0 -30
0 0 135 0 135 25 0 c17 0 25 -6 25 -17 0 -14 2 -15 18 -1 38 34 78 36 123 5z
m763 17 c9 -3 16 -17 16 -31 0 -20 -4 -23 -20 -18 -20 6 -59 -9 -72 -29 -4 -6
-8 -53 -8 -103 l0 -93 -30 0 -30 0 0 136 0 135 28 -3 c15 -2 26 -8 25 -15 -4
-18 5 -16 34 7 28 22 33 23 57 14z m255 -14 c41 -20 71 -69 71 -114 l0 -26
-110 0 c-96 0 -110 -2 -110 -17 0 -9 10 -27 22 -40 29 -31 78 -30 116 1 19 17
36 23 50 19 27 -7 27 -13 1 -42 -26 -28 -78 -51 -114 -51 -39 0 -98 34 -117
68 -24 40 -23 118 1 158 37 60 120 80 190 44z m657 -4 l28 -23 34 23 c40 28
78 30 110 8 40 -28 52 -66 52 -169 l0 -95 -30 0 -30 0 0 95 c0 82 -3 98 -20
115 -11 11 -29 20 -40 20 -11 0 -29 -9 -40 -20 -17 -17 -20 -33 -20 -115 l0
-95 -30 0 -30 0 0 95 c0 82 -3 98 -20 115 -11 11 -29 20 -40 20 -11 0 -29 -9
-40 -20 -17 -17 -20 -33 -20 -115 l0 -95 -30 0 -30 0 0 135 0 135 24 0 c13 0
26 -5 28 -11 2 -6 14 -5 33 5 42 22 80 20 111 -8z m500 0 l28 -23 34 23 c55
38 108 27 142 -28 16 -27 20 -51 20 -130 l0 -98 -30 0 -30 0 0 95 c0 82 -3 98
-20 115 -11 11 -29 20 -40 20 -11 0 -29 -9 -40 -20 -17 -17 -20 -33 -20 -115
l0 -95 -30 0 -30 0 0 95 c0 82 -3 98 -20 115 -24 24 -48 25 -78 4 -20 -14 -22
-23 -22 -115 l0 -99 -30 0 -30 0 0 135 0 135 24 0 c13 0 26 -5 28 -12 3 -8 11
-7 28 5 35 24 84 21 116 -7z m493 6 c53 -27 75 -64 75 -126 0 -94 -71 -156
-166 -143 -79 11 -122 61 -122 143 0 84 60 144 144 144 19 0 50 -8 69 -18z
m1130 0 c39 -21 71 -73 71 -114 l0 -28 -110 0 c-96 0 -110 -2 -110 -17 0 -9
10 -27 22 -40 29 -31 78 -30 116 1 19 17 36 23 50 19 29 -7 28 -15 -10 -51
-89 -88 -240 -24 -240 103 0 112 113 179 211 127z m285 12 c9 -3 16 -16 16
-28 0 -19 -6 -22 -36 -22 -54 0 -64 -21 -64 -131 l0 -93 -30 0 -30 0 0 135 0
135 25 0 c16 0 25 -6 25 -15 0 -20 7 -19 37 5 28 22 33 23 57 14z m-3734 -97
c0 -104 8 -123 57 -133 26 -5 37 -1 57 19 24 24 26 33 26 117 l0 90 30 0 30 0
0 -135 0 -135 -30 0 c-20 0 -30 5 -30 15 0 12 -6 11 -32 -5 -40 -24 -69 -25
-109 -4 -44 22 -59 68 -59 174 l0 90 30 0 30 0 0 -93z m2880 -42 l0 -135 -30
0 -30 0 0 135 0 135 30 0 30 0 0 -135z m280 0 l0 -135 -30 0 -30 0 0 135 0
135 30 0 30 0 0 -135z"/>
<path d="M4655 1570 c-60 -24 -77 -103 -31 -148 55 -56 146 -17 146 63 0 59
-63 106 -115 85z"/>
<path d="M1262 1588 c-16 -46 -33 -91 -37 -100 -6 -16 0 -18 68 -18 l76 0 -35
97 c-19 54 -37 99 -38 101 -2 1 -17 -35 -34 -80z"/>
<path d="M2612 1557 c-38 -40 -29 -47 58 -47 87 0 95 6 55 45 -32 33 -83 34
-113 2z"/>
<path d="M4259 1551 c-28 -29 -31 -36 -26 -74 11 -83 91 -114 148 -58 56 57
27 145 -53 158 -32 5 -41 1 -69 -26z"/>
<path d="M5392 1557 c-38 -40 -29 -47 58 -47 87 0 95 6 55 45 -32 33 -83 34
-113 2z"/>
</g>
</svg>
